<svg width="24" height="24" viewBox="0 0 24 24" xmlns="http://www.w3.org/2000/svg">
    <g fill="#1C64F2" fillRule="evenodd">
        <path d="M7.79 20c-.302 0-.504-.005-.657-.024l-.073-.005c-.62-.038-.932-.126-1.313-.32a3.2 3.2 0 0 1-1.398-1.398c-.298-.585-.345-1.01-.349-2.64l.003-7.68c.013-1.263.077-1.66.346-2.186A3.2 3.2 0 0 1 5.747 4.35c.585-.298 1.01-.345 2.64-.349H11.6a.8.8 0 1 1 0 1.6H8.27l-.594.007c-.737.016-.992.06-1.202.167a1.6 1.6 0 0 0-.7.7c-.132.259-.168.584-.173 1.795v7.462l.006.593c.016.737.06.992.167 1.202a1.6 1.6 0 0 0 .578.63c.107-.144.283-.322.575-.614l7.029-7.027c.26-.253.375-.338.577-.436.056-.027.114-.05.172-.07a1.6 1.6 0 0 1 1.162.07c.228.11.344.205.682.54l1.851 1.85V11.4a.8.8 0 0 1 1.6 0v4.214c-.004 1.629-.05 2.054-.349 2.639a3.2 3.2 0 0 1-1.398 1.398c-.555.283-.965.34-2.392.348H7.79zm10.607-3.98.002-1.29-3.127-3.122a2.531 2.531 0 0 0-.065-.06h-.014l-.18.172L8.33 18.4l7.688-.003c.977-.01 1.27-.05 1.507-.171a1.6 1.6 0 0 0 .7-.7c.12-.237.161-.53.171-1.507zM9.2 6.8a2.4 2.4 0 1 1 0 4.8 2.4 2.4 0 0 1 0-4.8zm0 1.6a.8.8 0 1 0 0 1.6.8.8 0 0 0 0-1.6z" fillRule="nonzero"/>
        <path d="m17.72 8.382-.97-2.132-2.132-.97a.309.309 0 0 1 0-.56l2.132-.97.97-2.132a.309.309 0 0 1 .56 0l.97 2.132 2.132.97a.309.309 0 0 1 0 .56l-2.132.97-.97 2.132a.309.309 0 0 1-.56 0z"/>
    </g>
</svg>
