<svg xmlns="http://www.w3.org/2000/svg" width="24" height="24" viewBox="0 0 24 24">
  <path d="M11.435 21.5a1.94 1.94 0 0 1-.999-.272l-5.257-2.94a2.14 2.14 0 0 1-.815-.803 2.228 2.228 0 0 1-.289-1.13V11.13L1.552 9.686a1.039 1.039 0 0 1-.42-.408A1.133 1.133 0 0 1 1 8.734c0-.2.044-.382.131-.545.088-.163.228-.3.421-.408l8.884-5.009a1.94 1.94 0 0 1 1.511-.204c.167.045.329.113.487.204l10.014 5.662c.175.09.311.222.407.395.097.172.145.358.145.558v6.968c0 .309-.1.567-.302.776a1 1 0 0 1-.75.313 1 1 0 0 1-.748-.313 1.073 1.073 0 0 1-.303-.776V9.931l-2.102 1.198v5.226c0 .418-.097.794-.29 1.13a2.14 2.14 0 0 1-.814.803l-5.257 2.94c-.158.09-.32.159-.487.204a1.94 1.94 0 0 1-.512.068zm0-8.738 7.202-4.028-7.202-4.03-7.202 4.03 7.202 4.028zm0 6.56 5.257-2.94v-4.11l-4.232 2.423a2.09 2.09 0 0 1-1.55.204 2.005 2.005 0 0 1-.5-.204l-4.232-2.423v4.11l5.257 2.94z" fill="#7F7F7F" fill-rule="nonzero"/>
</svg>
