<svg width="24" height="24" viewBox="0 0 24 24" xmlns="http://www.w3.org/2000/svg">
    <path d="M12 13.85c-.703 0-1.298-.24-1.785-.717a2.357 2.357 0 0 1-.73-1.75V5.467c0-.69.244-1.273.73-1.75C10.702 3.239 11.297 3 12 3c.703 0 1.298.239 1.785.716.486.477.73 1.06.73 1.75v5.918c0 .689-.244 1.272-.73 1.75-.487.477-1.082.715-1.785.715zM12 21a.738.738 0 0 1-.538-.212.709.709 0 0 1-.216-.528V17.75c-1.52-.176-2.813-.784-3.877-1.824-1.064-1.04-1.684-2.292-1.861-3.756a.627.627 0 0 1 .178-.55.78.78 0 0 1 .592-.235c.177 0 .335.065.474.197.14.131.227.292.265.482.166 1.2.72 2.21 1.662 3.027.941.817 2.048 1.225 3.321 1.225 1.273 0 2.38-.408 3.321-1.225.942-.817 1.496-1.826 1.662-3.027a.874.874 0 0 1 .268-.482.693.693 0 0 1 .487-.197c.234 0 .426.078.576.235.15.157.209.34.178.55-.177 1.464-.797 2.716-1.86 3.756-1.065 1.04-2.357 1.648-3.878 1.824v2.511c0 .21-.072.386-.216.528A.738.738 0 0 1 12 21zm0-8.63a.983.983 0 0 0 .717-.284.945.945 0 0 0 .289-.702V5.466a.945.945 0 0 0-.29-.703.983.983 0 0 0-.716-.284.983.983 0 0 0-.717.284.945.945 0 0 0-.289.703v5.918c0 .279.096.513.29.702a.983.983 0 0 0 .716.284z" fill="#585E6B" fillRule="nonzero"/>
</svg>
