<svg width="24" height="25" viewBox="0 0 24 25" xmlns="http://www.w3.org/2000/svg">
    <path d="M12.03 18c-1.535 0-2.84-.535-3.917-1.604C7.038 15.326 6.5 14.028 6.5 12.5c0-1.527.538-2.825 1.613-3.896C9.19 7.535 10.495 7 12.03 7c.91 0 1.745.203 2.503.61a5.704 5.704 0 0 1 1.891 1.611V7.534c0-.152.051-.278.153-.38a.515.515 0 0 1 .38-.154.528.528 0 0 1 .54.534v3.005a.637.637 0 0 1-.19.47.644.644 0 0 1-.473.19H13.81a.523.523 0 0 1-.536-.53c0-.15.051-.276.154-.38a.516.516 0 0 1 .382-.157h1.96A4.403 4.403 0 0 0 14.2 8.628a4.294 4.294 0 0 0-2.169-.56c-1.238 0-2.29.43-3.157 1.292-.867.862-1.3 1.909-1.3 3.14s.433 2.278 1.3 3.14c.867.862 1.92 1.293 3.157 1.293 1.056 0 1.986-.326 2.79-.977a4.374 4.374 0 0 0 1.553-2.457.548.548 0 0 1 .222-.364.576.576 0 0 1 .403-.124c.154.012.278.07.373.175a.498.498 0 0 1 .128.381 5.43 5.43 0 0 1-1.913 3.178C14.574 17.582 13.389 18 12.03 18z" fill="#585E6B" fillRule="nonzero"/>
</svg>
