<svg width="24" height="24" viewBox="0 0 24 24" xmlns="http://www.w3.org/2000/svg">
    <path d="M12 21c-2.1 0-3.958-.637-5.575-1.913-1.617-1.274-2.667-2.904-3.15-4.887a.741.741 0 0 1 .15-.688.974.974 0 0 1 .675-.362c.267-.033.508.017.725.15.217.133.367.333.45.6.4 1.5 1.225 2.725 2.475 3.675C9 18.525 10.417 19 12 19c1.95 0 3.604-.68 4.962-2.038C18.322 15.604 19 13.95 19 12c0-1.95-.68-3.604-2.038-4.963C15.604 5.68 13.95 5 12 5a6.75 6.75 0 0 0-3.225.8A7.431 7.431 0 0 0 6.25 8H8c.283 0 .52.096.713.287.191.192.287.43.287.713s-.096.52-.287.713A.968.968 0 0 1 8 10H4a.968.968 0 0 1-.712-.287A.968.968 0 0 1 3 9V5c0-.283.096-.52.288-.713A.968.968 0 0 1 4 4c.283 0 .52.096.713.287.191.192.287.43.287.713v1.35a8.732 8.732 0 0 1 3.113-2.475A8.93 8.93 0 0 1 12 3c1.25 0 2.42.237 3.512.712a9.148 9.148 0 0 1 2.85 1.925 9.148 9.148 0 0 1 1.926 2.85A8.707 8.707 0 0 1 21 12c0 1.25-.238 2.42-.712 3.512a9.148 9.148 0 0 1-1.925 2.85 9.148 9.148 0 0 1-2.85 1.926A8.707 8.707 0 0 1 12 21zm1-9.4 2.5 2.5a.948.948 0 0 1 .275.7.948.948 0 0 1-.275.7.948.948 0 0 1-.7.275.948.948 0 0 1-.7-.275l-2.8-2.8a.999.999 0 0 1-.225-.337 1.034 1.034 0 0 1-.075-.388V8c0-.283.096-.52.287-.713A.968.968 0 0 1 12 7c.283 0 .52.096.713.287.191.192.287.43.287.713v3.6z" fill="#000" fillRule="nonzero"/>
</svg>
