<svg width="20" height="20" viewBox="0 0 20 20" xmlns="http://www.w3.org/2000/svg">
    <path
        fill="#9ca3af"
        fillRule="nonzero"
        d="M12 16a.774.774 0 0 0 .57-.23.774.774 0 0 0 .23-.57V12a.774.774 0 0 0-.23-.57.774.774 0 0 0-.57-.23.774.774 0 0 0-.57.23.774.774 0 0 0-.23.57v3.2c0 .227.077.417.23.57.153.153.343.23.57.23zm0-6.4a.774.774 0 0 0 .57-.23.774.774 0 0 0 .23-.57.774.774 0 0 0-.23-.57A.774.774 0 0 0 12 8a.774.774 0 0 0-.57.23.774.774 0 0 0-.23.57c0 .227.077.417.23.57.153.153.343.23.57.23zM12 20a7.79 7.79 0 0 1-3.12-.63 8.079 8.079 0 0 1-2.54-1.71 8.079 8.079 0 0 1-1.71-2.54A7.79 7.79 0 0 1 4 12c0-1.107.21-2.147.63-3.12.42-.973.99-1.82 1.71-2.54a8.079 8.079 0 0 1 2.54-1.71A7.79 7.79 0 0 1 12 4a7.79 7.79 0 0 1 3.12.63c.973.42 1.82.99 2.54 1.71s1.29 1.567 1.71 2.54c.42.973.63 2.013.63 3.12a7.79 7.79 0 0 1-.63 3.12c-.42.973-.99 1.82-1.71 2.54a8.079 8.079 0 0 1-2.54 1.71A7.79 7.79 0 0 1 12 20zm0-1.6c1.787 0 3.3-.62 4.54-1.86 1.24-1.24 1.86-2.753 1.86-4.54s-.62-3.3-1.86-4.54C15.3 6.22 13.787 5.6 12 5.6s-3.3.62-4.54 1.86C6.22 8.7 5.6 10.213 5.6 12s.62 3.3 1.86 4.54C8.7 17.78 10.213 18.4 12 18.4z"
    />
</svg>
