<svg width="48" height="48" viewBox="0 0 48 48" xmlns="http://www.w3.org/2000/svg">
    <defs>
        <linearGradient x1="50%" y1="0%" x2="50%" y2="100%" id="78zgwh5pxa">
            <stop stop-color="#CBD0D8" offset="0%"/>
            <stop stop-color="#9CA3AF" offset="100%"/>
        </linearGradient>
    </defs>
    <g fill="none" fill-rule="evenodd">
        <circle fill="url(#78zgwh5pxa)" cx="24" cy="24" r="24"/>
        <circle fill="#FFF" cx="17" cy="10" r="1"/>
        <circle fill="#FFF" cx="39" cy="22" r="1"/>
        <circle fill="#FFF" cx="34" cy="36" r="1"/>
        <circle fill="#FFF" cx="31" cy="26" r="1"/>
        <circle fill="#FFF" cx="23" cy="22" r="1"/>
        <circle fill="#FFF" cx="27" cy="12" r="1"/>
        <circle fill="#FFF" cx="10" cy="27" r="1"/>
        <circle fill="#FFF" cx="18" cy="38" r="1"/>
        <path d="M32.5 14a.5.5 0 0 1 .5.5V16h1.5a.5.5 0 1 1 0 1H33v1.5a.5.5 0 1 1-1 0v-1.501L30.5 17a.5.5 0 1 1 0-1l1.5-.001V14.5a.5.5 0 0 1 .5-.5zM25.5 30a.5.5 0 0 1 .5.5V32h1.5a.5.5 0 1 1 0 1H26v1.5a.5.5 0 1 1-1 0v-1.501L23.5 33a.5.5 0 1 1 0-1l1.5-.001V30.5a.5.5 0 0 1 .5-.5zM15.5 18a.5.5 0 0 1 .5.5V20h1.5a.5.5 0 1 1 0 1H16v1.5a.5.5 0 1 1-1 0v-1.501L13.5 21a.5.5 0 1 1 0-1l1.5-.001V18.5a.5.5 0 0 1 .5-.5z" fill="#FFF"/>
        <circle fill-opacity=".5" fill="#FFF" cx="17.5" cy="31.5" r="1"/>
        <circle fill-opacity=".5" fill="#FFF" cx="22.5" cy="27.5" r="1"/>
        <circle fill-opacity=".5" fill="#FFF" cx="15.5" cy="27.5" r="1"/>
        <circle fill-opacity=".5" fill="#FFF" cx="25.5" cy="39.5" r="1"/>
        <circle fill-opacity=".5" fill="#FFF" cx="37.5" cy="29.5" r="1"/>
        <circle fill-opacity=".5" fill="#FFF" cx="28.5" cy="20.5" r="1"/>
        <circle fill-opacity=".5" fill="#FFF" cx="21.5" cy="15.5" r="1"/>
        <circle fill-opacity=".5" fill="#FFF" cx="23.5" cy="7.5" r="1"/>
        <circle fill-opacity=".5" fill="#FFF" cx="11.5" cy="14.5" r="1"/>
        <circle fill-opacity=".5" fill="#FFF" cx="32.5" cy="30.5" r="1"/>
        <circle fill-opacity=".5" fill="#FFF" cx="12.5" cy="34.5" r="1"/>
        <circle fill-opacity=".5" fill="#FFF" cx="7.5" cy="23.5" r="1"/>
    </g>
</svg>
