<svg width="24" height="24" viewBox="0 0 24 24" xmlns="http://www.w3.org/2000/svg">
    <path d="m12.699 3.928 2.207 4.387a.707.707 0 0 0 .569.41l4.871.711a.747.747 0 0 1 .618.506.73.73 0 0 1-.202.765l-3.51 3.431a.718.718 0 0 0-.223.656l.847 4.825a.746.746 0 0 1-.304.738.773.773 0 0 1-.807.055l-4.385-2.283a.83.83 0 0 0-.722 0l-4.386 2.283a.773.773 0 0 1-.806-.055.746.746 0 0 1-.304-.738l.847-4.88a.718.718 0 0 0-.223-.655l-3.553-3.377a.73.73 0 0 1-.19-.782.748.748 0 0 1 .648-.489l4.872-.71a.707.707 0 0 0 .569-.41l2.207-4.388a.75.75 0 0 1 .68-.428.75.75 0 0 1 .68.428h0z" stroke="#FF4D00" stroke-width="1.5" fill="none" fill-rule="evenodd" stroke-linecap="round" stroke-linejoin="round"/>
</svg>
